<svg xmlns="http://www.w3.org/2000/svg" width="20" height="20" viewBox="0 0 20 20"><path fill="#fff" d="M18.5 2H16v-.5a.5.5 0 0 0-1 0V2H5v-.5a.5.5 0 0 0-1 0V2H1.5C.673 2 0 2.673 0 3.5v14c0 .827.673 1.5 1.5 1.5h17c.827 0 1.5-.673 1.5-1.5v-14c0-.827-.673-1.5-1.5-1.5zm-17 1H4v1.5a.5.5 0 0 0 1 0V3h10v1.5a.5.5 0 0 0 1 0V3h2.5a.5.5 0 0 1 .5.5V6H1V3.5a.5.5 0 0 1 .5-.5zm17 15h-17a.5.5 0 0 1-.5-.5V7h18v10.5a.5.5 0 0 1-.5.5z"/><path fill="#fff" d="M7.5 10h-1a.5.5 0 0 1 0-1h1a.5.5 0 0 1 0 1zm3 0h-1a.5.5 0 0 1 0-1h1a.5.5 0 0 1 0 1zm3 0h-1a.5.5 0 0 1 0-1h1a.5.5 0 0 1 0 1zm3 0h-1a.5.5 0 0 1 0-1h1a.5.5 0 0 1 0 1zm-12 2h-1a.5.5 0 0 1 0-1h1a.5.5 0 0 1 0 1zm3 0h-1a.5.5 0 0 1 0-1h1a.5.5 0 0 1 0 1zm3 0h-1a.5.5 0 0 1 0-1h1a.5.5 0 0 1 0 1zm3 0h-1a.5.5 0 0 1 0-1h1a.5.5 0 0 1 0 1zm3 0h-1a.5.5 0 0 1 0-1h1a.5.5 0 0 1 0 1zm-12 2h-1a.5.5 0 0 1 0-1h1a.5.5 0 0 1 0 1zm3 0h-1a.5.5 0 0 1 0-1h1a.5.5 0 0 1 0 1zm3 0h-1a.5.5 0 0 1 0-1h1a.5.5 0 0 1 0 1zm3 0h-1a.5.5 0 0 1 0-1h1a.5.5 0 0 1 0 1zm3 0h-1a.5.5 0 0 1 0-1h1a.5.5 0 0 1 0 1zm-12 2h-1a.5.5 0 0 1 0-1h1a.5.5 0 0 1 0 1zm3 0h-1a.5.5 0 0 1 0-1h1a.5.5 0 0 1 0 1zm3 0h-1a.5.5 0 0 1 0-1h1a.5.5 0 0 1 0 1zm3 0h-1a.5.5 0 0 1 0-1h1a.5.5 0 0 1 0 1zm3 0h-1a.5.5 0 0 1 0-1h1a.5.5 0 0 1 0 1z"/></svg>